<?xml version="1.0" standalone="no"?><svg xmlns="http://www.w3.org/2000/svg" viewBox="0 0 1440 320"><path fill="#a2d9ff" fill-opacity="1" d="M0,64L34.3,69.3C68.6,75,137,85,206,101.3C274.3,117,343,139,411,133.3C480,128,549,96,617,112C685.7,128,754,192,823,197.3C891.4,203,960,149,1029,112C1097.1,75,1166,53,1234,37.3C1302.9,21,1371,11,1406,5.3L1440,0L1440,320L1405.7,320C1371.4,320,1303,320,1234,320C1165.7,320,1097,320,1029,320C960,320,891,320,823,320C754.3,320,686,320,617,320C548.6,320,480,320,411,320C342.9,320,274,320,206,320C137.1,320,69,320,34,320L0,320Z"></path></svg>